<svg xmlns="http://www.w3.org/2000/svg" viewBox="0 0 960 280" role="img" aria-labelledby="title desc">
  <title id="title">UniFi Ultimate</title>
  <desc id="desc">Tech style logo with minimal text for node-red-contrib-unifi-ultimate.</desc>
  <defs>
    <linearGradient id="bg" x1="0%" y1="0%" x2="100%" y2="100%">
      <stop offset="0%" stop-color="#071426"/>
      <stop offset="100%" stop-color="#112a46"/>
    </linearGradient>
    <linearGradient id="glow" x1="0%" y1="0%" x2="100%" y2="100%">
      <stop offset="0%" stop-color="#22d3ee"/>
      <stop offset="100%" stop-color="#60a5fa"/>
    </linearGradient>
    <linearGradient id="chip" x1="0%" y1="0%" x2="100%" y2="100%">
      <stop offset="0%" stop-color="#0ea5e9"/>
      <stop offset="100%" stop-color="#2563eb"/>
    </linearGradient>
    <filter id="glowSoft" x="-30%" y="-30%" width="160%" height="160%">
      <feDropShadow dx="0" dy="0" stdDeviation="10" flood-color="#38bdf8" flood-opacity="0.5"/>
    </filter>
    <filter id="shadow" x="-20%" y="-20%" width="140%" height="140%">
      <feDropShadow dx="0" dy="10" stdDeviation="16" flood-color="#020617" flood-opacity="0.35"/>
    </filter>
  </defs>

  <rect x="12" y="12" width="936" height="256" rx="34" fill="url(#bg)"/>

  <g transform="translate(40 40)" filter="url(#shadow)">
    <rect x="0" y="0" width="200" height="200" rx="42" fill="#0a1f36"/>
    <rect x="20" y="20" width="160" height="160" rx="32" fill="url(#chip)"/>

    <g transform="translate(28 27) scale(0.205)" filter="url(#glowSoft)">
      <path d="M514.057 183.203H492.186V205.075H514.057V183.203Z" fill="#e0f2fe"/>
      <path d="M437.526 336.384V292.562L437.539 292.575H481.27V336.318H525V350.183C525 366.21 523.637 385.199 520.505 400.112C518.749 408.446 516.089 416.729 512.97 424.683C509.772 432.821 506.09 440.618 502.08 447.603C496.851 456.724 490.797 465.478 483.773 473.708L483.401 474.142L482.79 474.858C481.103 476.838 479.434 478.795 477.6 480.706C475.464 482.986 473.25 485.148 470.996 487.31C443.004 514.267 406.533 531.106 368.399 534.972C363.812 535.444 354.6 535.929 350 535.929C345.387 535.916 336.188 535.444 331.601 534.972C293.466 531.106 256.996 514.254 229.004 487.31C226.75 485.148 224.536 482.986 222.4 480.706C220.475 478.712 218.74 476.668 216.985 474.601L216.979 474.594L216.227 473.708C209.203 465.478 203.149 456.724 197.92 447.603C193.91 440.605 190.227 432.821 187.03 424.683C183.911 416.729 181.251 408.446 179.495 400.112C176.363 385.186 175 366.21 175 350.183V185.942H262.474V336.384C262.474 336.384 262.474 347.916 262.618 351.69L262.651 352.571V352.576C262.835 357.457 263.015 362.238 263.522 366.996C264.964 380.507 267.951 393.324 274.111 404.161C275.893 407.293 277.702 410.333 279.864 413.217C293.021 430.764 313.045 443.934 338.022 447.603C340.997 448.036 346.999 448.416 350 448.416C353.001 448.416 359.003 448.036 361.978 447.603C386.955 443.934 406.979 430.764 420.136 413.217C422.312 410.333 424.107 407.293 425.889 404.161C432.048 393.324 435.036 380.507 436.478 366.996C436.985 362.229 437.166 357.439 437.349 352.548L437.382 351.69C437.526 347.916 437.526 336.384 437.526 336.384Z" fill="#e0f2fe"/>
      <path d="M448.443 216.017H481.257L481.256 248.818H525V292.562H481.256L481.257 248.831H448.443V216.017Z" fill="#e0f2fe"/>
    </g>
  </g>

  <g transform="translate(286 76)">
    <text x="0" y="56" fill="#eff6ff" font-family="'Avenir Next', 'Segoe UI', Roboto, Arial, sans-serif" font-size="58" font-weight="700" letter-spacing="0.2">
      UniFi Ultimate
    </text>
    <text x="2" y="100" fill="#bae6fd" font-family="'Avenir Next', 'Segoe UI', Roboto, Arial, sans-serif" font-size="24" font-weight="500">
      Simple. Clean. Ready for Node-RED.
    </text>
  </g>
</svg>
