<svg width="746" height="96" viewBox="0 0 746 96" fill="none" xmlns="http://www.w3.org/2000/svg">
<path d="M196.54 23.1399C190.1 23.1399 184.89 17.9299 184.89 11.6499C184.89 5.36987 190.1 0 196.54 0C202.979 0 208.029 5.20996 208.029 11.6499C208.029 18.0901 202.819 23.1399 196.54 23.1399Z" fill="#6B7280"/>
<path d="M300.971 23.1399C294.53 23.1399 289.32 17.9299 289.32 11.6499C289.32 5.36987 294.53 0 300.971 0C307.41 0 312.46 5.20996 312.46 11.6499C312.46 18.0901 307.25 23.1399 300.971 23.1399Z" fill="#6B7280"/>
<path d="M186.44 31.23H206.471V95.25H186.44V31.23Z" fill="#6B7280"/>
<path d="M223.23 2.83984H279.95V20.3098H243.261V42.8699H274.131V60.3398H243.261V95.2498H223.23V2.83984Z" fill="#6B7280"/>
<path d="M290.88 31.23H310.91V95.25H290.88V31.23Z" fill="#6B7280"/>
<path d="M69.8496 31.2097V42.8699L69.8486 43.4888L69.8438 44.6274C69.8389 45.4956 69.8291 46.458 69.8096 46.9399C69.7598 48.3198 69.71 49.6699 69.5703 51.0098C69.1904 54.6099 68.3896 58.0098 66.75 60.8999C66.2803 61.7297 65.7998 62.5398 65.2197 63.3098C61.7197 67.9797 56.3896 71.4797 49.75 72.4597C48.96 72.5798 47.3604 72.6699 46.5596 72.6699C45.7598 72.6699 44.1602 72.5698 43.3701 72.4597C36.7197 71.4797 31.4004 67.9797 27.9004 63.3098C27.3301 62.5398 26.8496 61.7397 26.3701 60.8999C24.7305 58.0098 23.9404 54.6099 23.5498 51.0098C23.4102 49.6699 23.3604 48.3198 23.3096 46.9399C23.2695 45.9399 23.2695 42.8699 23.2695 42.8699V2.83984H0V46.5398C0 50.7998 0.360352 55.8599 1.2002 59.8198C1.30664 60.3215 1.4248 60.8223 1.55273 61.3213L1.64844 61.6836C1.74609 62.0479 1.84961 62.4109 1.95801 62.7727C2.32227 63.9861 2.74512 65.1853 3.20996 66.3599C3.375 66.7808 3.5459 67.199 3.7207 67.6128L3.87207 67.967L4.05371 68.3811C4.34082 69.0298 4.63867 69.6665 4.94629 70.2874C5.31738 71.0374 5.70312 71.7639 6.09961 72.4597C7.49023 74.8899 9.11035 77.22 10.9697 79.4099L11.1963 79.675C11.6572 80.2139 12.1123 80.7456 12.6104 81.2698C12.9531 81.6372 13.3037 81.9902 13.6572 82.3394L14.1348 82.8079L14.3604 83.0298C21.8096 90.2 31.5098 94.6799 41.6602 95.7097C42.8799 95.8298 45.3301 95.9597 46.5596 95.9597C47.79 95.9597 50.2402 95.8298 51.46 95.7097C61.6104 94.6799 71.3096 90.2 78.7598 83.0298C79.3604 82.46 79.9502 81.8799 80.5195 81.2698C80.8213 80.9521 81.1074 80.6316 81.3887 80.3083L81.6465 80.0098L81.9336 79.675L82.1602 79.4099C84.0303 77.22 85.6396 74.8899 87.0303 72.4597C88.0996 70.5999 89.0801 68.5298 89.9297 66.3599C90.7598 64.2397 91.4697 62.0398 91.9297 59.8198C92.7695 55.8499 93.1299 50.7998 93.1299 46.5398V42.8499H81.4902V31.2097H93.1201V19.5698H81.4805V10.8398H72.75V19.5698H81.4805V31.2097H69.8496Z" fill="#6B7280"/>
<path d="M90.21 2.10986H84.3896V7.92993H90.21V2.10986Z" fill="#6B7280"/>
<path d="M149.8 95.2498H169.689V51.7798C169.689 39.0198 161.729 29.6199 149.49 29.0798C135.87 28.48 129.05 36.98 129.05 36.98V31.1599H109.88V95.1799H129.78V57.6099C129.78 57.6099 129.78 56.2898 129.79 55.8599C129.81 55.2698 129.83 54.6899 129.899 54.1099C130.06 52.5698 130.41 51.0999 131.11 49.8599C131.173 49.7466 131.237 49.635 131.303 49.5249C131.446 49.2856 131.599 49.0527 131.77 48.8198C133.27 46.8098 135.56 45.3098 138.42 44.8899C138.76 44.8398 139.45 44.7998 139.79 44.7898C139.858 44.7898 139.941 44.7915 140.033 44.7944C140.178 44.7993 140.345 44.8081 140.51 44.8198C140.756 44.8372 140.998 44.8611 141.16 44.8899C144.02 45.3098 146.3 46.8098 147.81 48.8198C148.06 49.1499 148.26 49.5 148.47 49.8599C149.18 51.0999 149.52 52.5698 149.68 54.1099C149.739 54.6814 149.76 55.2527 149.78 55.8335V55.8599C149.788 56.0242 149.793 56.3188 149.796 56.6201C149.8 57.1064 149.8 57.6099 149.8 57.6099V95.2498Z" fill="#6B7280"/>
<path fill-rule="evenodd" clip-rule="evenodd" d="M386.03 3.28003H358.23V94.8201H369.48V62.24H386.03C402.19 62.24 415.381 48.9199 415.381 32.76C415.381 16.6001 402.19 3.28003 386.03 3.28003ZM369.48 51.8901V13.74H386.03C396.5 13.74 405.03 22.1401 405.03 32.75C405.03 43.3601 396.5 51.8901 386.03 51.8901H369.48Z" fill="#6B7280"/>
<path d="M461.271 39.8699C459.46 38.96 457.78 38.5698 455.84 38.5698C450.28 38.5698 445.11 41.5498 442.271 46.46C440.72 49.2998 440.46 52.5398 440.33 55.7698C440.276 56.0393 440.245 56.5527 440.227 57.0615C440.217 57.3245 440.211 57.5862 440.207 57.8123L440.201 58.2832L440.2 58.49V94.8198H428.95V29.6599H440.07V37.5398C443.95 31.8599 450.41 28.6199 457.26 28.6199C458.811 28.6199 460.49 29.1399 461.271 29.5298V39.8699Z" fill="#6B7280"/>
<path fill-rule="evenodd" clip-rule="evenodd" d="M496.31 28.6099C476.779 28.6099 464.89 43.7397 464.89 62.2297C464.89 80.72 476.79 95.8499 496.31 95.8499C515.83 95.8499 527.729 80.72 527.729 62.2297C527.729 43.7397 515.84 28.6099 496.31 28.6099ZM496.31 38.1799C510.02 38.7 516.869 48.5298 516.869 62.2297C516.869 75.8098 510.02 85.7698 496.31 86.2798C482.6 85.7598 475.75 75.7998 475.75 62.2297C475.75 48.5198 482.6 38.6899 496.31 38.1799Z" fill="#6B7280"/>
<path d="M572.59 90.4199C567.94 94.0398 565.22 95.8499 559.01 95.8499C549.05 95.8499 542.72 88.9998 542.72 78.3899V38.8298H533.67V29.6499H543.11V12.3198H553.71V29.6499H570.65V38.8298H553.97V76.9697C553.97 83.9497 556.3 87.0498 561.47 87.0498C563.41 87.0498 566 86.2698 567.42 84.8499L572.59 90.4099V90.4199Z" fill="#6B7280"/>
<path fill-rule="evenodd" clip-rule="evenodd" d="M635.95 65.8499C635.95 42.71 625.601 28.8799 607.631 28.6199H606.46C594.57 28.7498 585 35.8599 580.48 48.01C574.79 62.75 578.16 79.8198 588.24 88.8699C593.28 93.2698 600.141 95.8499 607.12 95.8499C622.24 95.8499 632.46 84.8599 634.141 81.24L628.32 74.8999C623.15 81.7498 615.65 85.8899 607.12 85.8899C595.87 85.8899 589.28 76.45 589.28 65.8499H635.95ZM624.57 56.8098H589.53C590.181 46.21 597.561 38.5798 607.12 38.5798C616.681 38.5798 624.311 46.5999 624.57 56.8098Z" fill="#6B7280"/>
<path d="M692.96 78.01C693.21 77.7659 693.939 76.7715 694.463 76.0566C694.755 75.6582 694.983 75.3464 695.03 75.2998L701.11 81.6299C695.55 90.9399 685.98 95.8499 675.25 95.8499C655.73 95.8499 643.83 80.72 643.83 62.23C643.83 43.74 655.72 28.6199 675.25 28.6199C685.98 28.6199 695.55 33.5298 701.11 42.8398L695.03 49.1799C694.983 49.1333 694.755 48.8218 694.463 48.4236C694.2 48.0649 693.886 47.636 693.606 47.2666C693.328 46.8997 693.085 46.5916 692.96 46.47C688.82 41.4199 682.88 38.3198 676.15 38.1899C661.8 38.1899 654.69 48.2698 654.69 62.24C654.69 76.21 661.8 86.2898 676.15 86.2898C682.87 86.1599 688.82 83.0598 692.96 78.01Z" fill="#6B7280"/>
<path d="M732.13 95.8499C738.34 95.8499 741.061 94.0398 745.71 90.4199V90.4099L740.54 84.8499C739.12 86.2698 736.53 87.0498 734.59 87.0498C729.42 87.0498 727.09 83.9497 727.09 76.9697V38.8298H743.771V29.6499H726.83V12.3198H716.23V29.6499H706.79V38.8298H715.84V78.3899C715.84 88.9998 722.17 95.8499 732.13 95.8499Z" fill="#6B7280"/>
</svg>
