<svg width="734" height="96" viewBox="0 0 734 96" fill="none" xmlns="http://www.w3.org/2000/svg">
<path d="M184.89 11.6501C184.89 17.9299 190.1 23.1399 196.54 23.1399C202.819 23.1399 208.029 18.0901 208.029 11.6501C208.029 5.20996 202.979 0 196.54 0C190.1 0 184.89 5.37012 184.89 11.6501Z" fill="#6B7280"/>
<path d="M289.32 11.6501C289.32 17.9299 294.53 23.1399 300.971 23.1399C307.25 23.1399 312.46 18.0901 312.46 11.6501C312.46 5.20996 307.41 0 300.971 0C294.53 0 289.32 5.37012 289.32 11.6501Z" fill="#6B7280"/>
<path d="M206.471 31.23H186.44V95.25H206.471V31.23Z" fill="#6B7280"/>
<path d="M279.95 2.84009H223.23V95.2502H243.261V60.3401H274.131V42.8701H243.261V20.3101H279.95V2.84009Z" fill="#6B7280"/>
<path d="M310.91 31.23H290.88V95.25H310.91V31.23Z" fill="#6B7280"/>
<path d="M69.8496 42.8701V31.2102H81.4805V19.5701H93.1201V31.2102H81.4902V42.8501H93.1299V46.54C93.1299 50.8 92.7695 55.8501 91.9297 59.8201C91.4697 62.04 90.7598 64.24 89.9297 66.3601C89.4111 67.6853 88.8438 68.9731 88.2363 70.1987L87.9775 70.7146C87.8867 70.8911 87.7949 71.0662 87.7031 71.2397L87.5371 71.5498C87.4678 71.6794 87.3975 71.8081 87.3262 71.936C87.2285 72.1125 87.1299 72.2874 87.0303 72.4602C85.6396 74.8901 84.0303 77.22 82.1602 79.4099L81.9365 79.6716L81.9219 79.6892C81.4648 80.2236 81.0137 80.7507 80.5195 81.2703C79.9502 81.8801 79.3604 82.4602 78.7598 83.03C71.3096 90.2002 61.6104 94.6802 51.46 95.7102C50.2402 95.8301 47.79 95.9602 46.5596 95.9602C45.9365 95.9602 44.999 95.9268 44.0674 95.8782C43.1621 95.8308 42.2617 95.7693 41.6602 95.7102C31.5098 94.6802 21.8096 90.2002 14.3604 83.03L14.1338 82.8071L14.125 82.7976C13.6133 82.2971 13.1035 81.7988 12.6104 81.2703C12.0303 80.6602 11.5098 80.04 10.9697 79.4099C9.11035 77.22 7.49023 74.8901 6.09961 72.4602C5.77344 71.8875 5.4541 71.2937 5.14453 70.6833C4.875 70.1519 4.6123 69.6077 4.35742 69.0535C4.16992 68.6467 3.9873 68.2346 3.80957 67.8181C3.72656 67.6248 3.64453 67.4304 3.56348 67.2354L3.44238 66.9404L3.33301 66.6697L3.20996 66.3601C2.37012 64.24 1.66992 62.04 1.2002 59.8201C0.360352 55.8601 0 50.8 0 46.54V2.84009H23.2695V42.8701L23.2715 43.6072C23.2725 44.033 23.2744 44.5923 23.2783 45.1445C23.2842 45.8545 23.2939 46.5527 23.3096 46.9402C23.3604 48.3201 23.4102 49.6702 23.5498 51.01C23.9404 54.6101 24.7305 58.0103 26.3701 60.9001C26.8496 61.7402 27.3301 62.54 27.9004 63.3101C31.4004 67.98 36.7197 71.48 43.3701 72.4602C44.1602 72.5701 45.7598 72.6702 46.5596 72.6702C47.3604 72.6702 48.96 72.5801 49.75 72.4602C56.3896 71.48 61.7197 67.98 65.2197 63.3101C65.5703 62.8445 65.8848 62.3643 66.1826 61.8738C66.377 61.5532 66.5645 61.2283 66.75 60.9001C68.3896 58.0103 69.1904 54.6101 69.5703 51.01C69.71 49.6702 69.7598 48.3201 69.8096 46.9402C69.8281 46.4729 69.8379 45.5537 69.8438 44.707L69.8486 43.4683L69.8496 42.8701Z" fill="#6B7280"/>
<path d="M81.4805 19.5701H72.75V10.8401H81.4805V19.5701Z" fill="#6B7280"/>
<path d="M84.3896 2.11011H90.21V7.92993H84.3896V2.11011Z" fill="#6B7280"/>
<path d="M169.689 95.25H149.8V57.6099C149.8 57.6099 149.8 56.29 149.78 55.8599V55.8328C149.76 55.2524 149.739 54.6812 149.68 54.1099C149.52 52.5698 149.18 51.0999 148.47 49.8599L148.432 49.793L148.417 49.7673C148.225 49.4399 148.038 49.1216 147.81 48.8198C146.3 46.8098 144.02 45.3101 141.16 44.8899C141.032 44.8672 140.854 44.8474 140.665 44.8315L140.443 44.8152C140.196 44.7991 139.953 44.7898 139.79 44.7898C139.59 44.7957 139.27 44.8118 138.97 44.8342C138.76 44.8501 138.56 44.8691 138.42 44.8899C135.56 45.3101 133.27 46.8098 131.77 48.8198C131.715 48.8938 131.662 48.9678 131.611 49.042C131.557 49.1221 131.504 49.2024 131.452 49.2832C131.332 49.4717 131.22 49.6628 131.11 49.8599C130.41 51.0999 130.06 52.5698 129.899 54.1099C129.83 54.6899 129.81 55.27 129.79 55.8599C129.78 56.29 129.78 57.6099 129.78 57.6099V95.1799H109.88V31.1599H129.05V36.98C129.05 36.98 135.87 28.48 149.49 29.0798C161.729 29.6199 169.689 39.02 169.689 51.78V95.25Z" fill="#6B7280"/>
<path fill-rule="evenodd" clip-rule="evenodd" d="M386.16 3.28003H396.761L433.48 94.8201H421.46L410.73 67.4099H372.2L361.471 94.8201H349.44L386.16 3.28003ZM391.455 17.9023L376.2 56.8098H406.71L391.455 17.9023Z" fill="#6B7280"/>
<path d="M488.216 77.801C488.145 77.887 488.085 77.9551 488.04 77.9998C483.9 83.0498 477.95 86.1499 471.23 86.28C456.88 86.28 449.771 76.1899 449.771 62.2297C449.771 48.2698 456.88 38.1799 471.23 38.1799C477.96 38.3198 483.9 41.4199 488.04 46.4597C488.43 46.8499 489.98 49.0498 490.11 49.1799L496.19 42.8398C490.63 33.5298 481.061 28.6199 470.33 28.6199C450.8 28.6199 438.91 43.7397 438.91 62.2297C438.91 80.72 450.811 95.8398 470.33 95.8398C481.061 95.8398 490.63 90.9299 496.19 81.6199L490.11 75.2898C490.076 75.3215 489.942 75.4993 489.756 75.7505L488.922 76.8816C488.809 77.0347 488.696 77.1841 488.591 77.3223C488.449 77.5083 488.32 77.6741 488.216 77.801Z" fill="#6B7280"/>
<path d="M552.16 77.9998C552.55 77.6099 554.101 75.4099 554.23 75.2898L560.311 81.6199C554.75 90.9299 545.181 95.8398 534.45 95.8398C514.931 95.8398 503.03 80.72 503.03 62.2297C503.03 43.7397 514.92 28.6199 534.45 28.6199C545.181 28.6199 554.75 33.5298 560.311 42.8398L554.23 49.1799C554.101 49.0498 552.55 46.8499 552.16 46.4597C548.021 41.4199 542.08 38.3198 535.351 38.1799C521 38.1799 513.891 48.2698 513.891 62.2297C513.891 76.1899 521 86.28 535.351 86.28C542.07 86.1499 548.021 83.0498 552.16 77.9998Z" fill="#6B7280"/>
<path fill-rule="evenodd" clip-rule="evenodd" d="M624.7 65.8499C624.7 42.71 614.351 28.8799 596.381 28.6199H595.21C583.32 28.7498 573.75 35.8599 569.23 48.01C563.54 62.75 566.91 79.8198 576.99 88.8699C582.03 93.2698 588.891 95.8499 595.87 95.8499C610.99 95.8499 621.21 84.8599 622.891 81.24L617.07 74.8999C611.9 81.75 604.4 85.8899 595.87 85.8899C584.62 85.8899 578.03 76.45 578.03 65.8499H624.7ZM613.32 56.8098H578.28C578.931 46.2097 586.311 38.5798 595.87 38.5798C605.431 38.5798 613.061 46.5999 613.32 56.8098Z" fill="#6B7280"/>
<path d="M678.48 74.51C678.74 80.0698 676.28 86.0198 672.021 89.76C667.36 93.7698 661.16 95.8398 653.53 95.8398C643.97 95.8398 634.521 89.76 631.16 85.76L637.37 79.1599C642.8 83.4197 647.07 86.01 654.05 86.01C658.7 86.01 664.65 84.8499 667.24 79.1599C668.021 77.6099 668.021 75.2798 667.37 73.7297C665.561 69.21 657.55 67.1399 653.28 66.0999C649.66 65.2 644.36 63.6499 640.22 60.6697C634.021 56.2698 632.08 47.4797 635.7 39.72C639.58 31.5698 649.01 28.5999 656.51 28.5999C664.66 28.5999 672.29 31.96 677.2 37.3899L671 43.9797C666.09 40.3599 662.59 38.2998 656.26 38.2998C651.99 38.2998 646.17 40.1099 644.88 44.76C644.36 46.8298 644.75 49.1599 645.92 50.7097C647.86 53.5498 652.38 55.3599 655.62 56.2698C660.53 57.5598 665.181 58.9897 669.19 60.7898C673.46 62.8599 678.37 67.2598 678.5 74.4998L678.48 74.51Z" fill="#6B7280"/>
<path d="M726.96 89.76C731.22 86.0198 733.68 80.0698 733.42 74.51L733.439 74.4998C733.31 67.2598 728.399 62.8599 724.13 60.7898C720.12 58.9897 715.47 57.5598 710.56 56.2698C707.319 55.3599 702.8 53.5498 700.859 50.7097C699.689 49.1599 699.3 46.8298 699.819 44.76C701.109 40.1099 706.93 38.2998 711.199 38.2998C717.529 38.2998 721.029 40.3599 725.939 43.9797L732.14 37.3899C727.229 31.96 719.6 28.5999 711.449 28.5999C703.949 28.5999 694.52 31.5698 690.64 39.72C687.02 47.4797 688.96 56.2698 695.159 60.6697C699.3 63.6499 704.6 65.2 708.22 66.0999C712.489 67.1399 720.5 69.21 722.31 73.7297C722.96 75.2798 722.96 77.6099 722.18 79.1599C719.59 84.8499 713.64 86.01 708.989 86.01C702.01 86.01 697.739 83.4197 692.31 79.1599L686.1 85.76C689.46 89.76 698.909 95.8398 708.47 95.8398C716.1 95.8398 722.3 93.7698 726.96 89.76Z" fill="#6B7280"/>
</svg>
